<svg xmlns="http://www.w3.org/2000/svg" viewBox="0 0 64 64">
  <defs>
    <linearGradient id="bg" x1="0" y1="0" x2="1" y2="1">
      <stop offset="0%" stop-color="#0b5e55"/>
      <stop offset="100%" stop-color="#14532d"/>
    </linearGradient>
    <linearGradient id="gold" x1="0" y1="0" x2="0" y2="1">
      <stop offset="0%" stop-color="#fde68a"/>
      <stop offset="100%" stop-color="#eab308"/>
    </linearGradient>
  </defs>
  <rect width="64" height="64" rx="14" fill="url(#bg)"/>
  <rect x="3.5" y="3.5" width="57" height="57" rx="11" fill="none" stroke="url(#gold)" stroke-width="1.5" opacity="0.9"/>

  <!-- Aksen bintang delapan -->
  <path d="M32 7.8l1.9 4.9 4.9 1.9-4.9 1.9-1.9 4.9-1.9-4.9-4.9-1.9 4.9-1.9L32 7.8z" fill="url(#gold)"/>

  <g fill="#ffffff">
    <!-- Figur pegawai -->
    <circle cx="23.5" cy="25" r="4"/>
    <circle cx="32" cy="22.5" r="5"/>
    <circle cx="40.5" cy="25" r="4"/>

    <path d="M19 39c0-3 2.3-5.5 5.2-5.5h15.6c2.9 0 5.2 2.5 5.2 5.5v1.6H19V39z" opacity="0.98"/>
    <path d="M14.5 40.6c0-2.5 1.9-4.6 4.4-4.6h3.9v4.6h-8.3z" opacity="0.86"/>
    <path d="M41.2 36h3.9c2.5 0 4.4 2.1 4.4 4.6h-8.3V36z" opacity="0.86"/>

    <!-- Data bars -->
    <rect x="18" y="45.5" width="5.5" height="7.5" rx="1.1"/>
    <rect x="25.5" y="42.5" width="5.5" height="10.5" rx="1.1" opacity="0.93"/>
    <rect x="33" y="39.5" width="5.5" height="13.5" rx="1.1" opacity="1"/>
    <rect x="40.5" y="43.5" width="5.5" height="9.5" rx="1.1" opacity="0.92"/>
  </g>
</svg>
