<svg xmlns="http://www.w3.org/2000/svg" viewBox="0 0 64 64">
  <defs>
    <linearGradient id="g" x1="0" y1="0" x2="1" y2="1">
      <stop offset="0%" stop-color="#f59e0b"/>
      <stop offset="100%" stop-color="#ea580c"/>
    </linearGradient>
  </defs>
  <rect width="64" height="64" rx="12" fill="url(#g)"/>
  <g fill="#fff">
    <path d="M22 22h20a6 6 0 0 1 6 6v14a6 6 0 0 1-6 6H22a6 6 0 0 1-6-6V28a6 6 0 0 1 6-6z" opacity="0.95"/>
    <path d="M28 20a4 4 0 0 1 4-4h0a4 4 0 0 1 4 4v2h-8z"/>
    <rect x="18" y="30" width="28" height="2" rx="1"/>
  </g>
</svg>
